<svg xmlns="http://www.w3.org/2000/svg" width="185.91" height="27.64" viewBox="0 0 185.91 27.64"><g id="Layer_2" data-name="Layer 2"><g id="Layer_1-2" data-name="Layer 1"><g id="Miniature_2-2" data-name="Miniature 2-2"><path d="M27.21.49,25.59,26.3l-8,.35L17.65,13,14,24H10.9L8.16,14.2V25.59L0,25.84.35,1.55l9-.35L13,12.83,17.75.49Z" fill="#ee233f"/><path d="M37.67,1.37,36.44,25.31,29,25.7,28.3,1.86Z" fill="#ee233f"/><path d="M60.91,17.23v3.93c0,1.3-.07,2.59-.13,3.91l-10.12-.18c.35-2.07.66-4.14.91-6.21A50.5,50.5,0,0,0,52,12.41v-.74a6.86,6.86,0,0,0-.07-1.15c-.07-.43-.08-.87-.15-1.32A8.19,8.19,0,0,0,51.41,8,3.35,3.35,0,0,0,51,7a.68.68,0,0,0-.57-.36,1.53,1.53,0,0,0-1,.35,2.9,2.9,0,0,0-.68.91,5.38,5.38,0,0,0-.44,1.24,12.63,12.63,0,0,0-.23,1.37A7.88,7.88,0,0,0,48,11.84v1Q47.85,16,47.79,19c0,2-.08,4.11-.14,6.2l-9,.38q.35-6.19.68-12.34c.21-4.09.39-8.2.51-12.34l8.3-.42,0,2.82a12.43,12.43,0,0,1,1.06-1.12,7.82,7.82,0,0,1,1.23-.91A6.24,6.24,0,0,1,51.78.68,5.29,5.29,0,0,1,53.31.46,6.41,6.41,0,0,1,55.93,1a5.92,5.92,0,0,1,1.94,1.34,7.34,7.34,0,0,1,1.35,2,14.32,14.32,0,0,1,.88,2.45,21,21,0,0,1,.51,2.72c.12.94.2,1.87.24,2.78s.06,1.8.06,2.66Z" fill="#ee233f"/><path d="M71.74,1.37,70.51,25.31l-7.42.39L62.38,1.86Z" fill="#ee233f"/><path d="M95.06,24.61l-8.72,1.12-1-4h-4l-.88,4-9-.87,7-23.42L88.21,1Zm-10.4-8.23-1.34-6.11L82,16.38Z" fill="#ee233f"/><path d="M111.88,1.34l-.17,7.45L106.47,9l-.63,16.31-7.42.39L97.75,9.39l-5.24.28.21-8.3Z" fill="#ee233f"/><path d="M133.84,1.37q-.79,6.2-1.35,12.31T131.41,26l-7.2.52.31-2.7a3.61,3.61,0,0,1-.81.7,4.6,4.6,0,0,1-1,.48,5.11,5.11,0,0,1-1.09.27,6.34,6.34,0,0,1-1.07.06,6,6,0,0,1-2.25-.47,7.67,7.67,0,0,1-1.93-1.19A8.92,8.92,0,0,1,114.79,22a11.46,11.46,0,0,1-1.19-2.1,11.76,11.76,0,0,1-.74-2.24,10.33,10.33,0,0,1-.25-2.21c0-1.06,0-2.15.06-3.28s.11-2.26.22-3.4.24-2.26.41-3.38.38-2.18.64-3.2l4.31.2c1.44.06,2.88.07,4.3,0-.26,1-.53,2-.8,3.07s-.5,2.05-.71,3.09-.38,2.08-.51,3.12a25.81,25.81,0,0,0-.19,3.17v1a7.68,7.68,0,0,0,.18,1.35,3.57,3.57,0,0,0,.46,1.17.93.93,0,0,0,.87.5,1.61,1.61,0,0,0,1.19-.57,5.28,5.28,0,0,0,1-1.59,13.41,13.41,0,0,0,.7-2.23c.19-.84.36-1.72.49-2.64s.24-1.85.33-2.79.14-1.82.18-2.64.07-1.57.09-2.23,0-1.16,0-1.53V2.06a2.76,2.76,0,0,0-.06-.69H132A10.82,10.82,0,0,0,133.84,1.37Z" fill="#ee233f"/><path d="M155.5,9.18a11.52,11.52,0,0,1-.24,2.48,7.42,7.42,0,0,1-.75,2.05,7.16,7.16,0,0,1-1.32,1.72A12.3,12.3,0,0,1,151.24,17l4.19,7.45L147.52,26l-2.71-7.49-2.18.07-.32,7.31h-7.56c.06-2.67.12-5.33.17-8s.12-5.31.19-8c0-1.35,0-2.68.07-4s.07-2.66.14-4a25.1,25.1,0,0,1,2.42-.75,21.65,21.65,0,0,1,2.4-.47c.8-.11,1.62-.19,2.44-.23s1.68-.06,2.55-.06A13.69,13.69,0,0,1,149,.91a9.82,9.82,0,0,1,3.31,1.66A8,8,0,0,1,155.5,9.18Zm-7.88.56a4.48,4.48,0,0,0-.2-1.36,3.1,3.1,0,0,0-.6-1.06,2.67,2.67,0,0,0-1-.7,3.45,3.45,0,0,0-1.38-.26,4,4,0,0,0-.69,0,4.67,4.67,0,0,0-.65.13L142.82,13h.42a6.14,6.14,0,0,0,1.54-.2,4.27,4.27,0,0,0,1.41-.59,3.4,3.4,0,0,0,1-1A2.84,2.84,0,0,0,147.62,9.74Z" fill="#ee233f"/><path d="M176.15,11.92a22.37,22.37,0,0,1-.21,3.06c-2,.13-4,.33-6,.62l-5.94.85a4.29,4.29,0,0,0,1.43,2,3.7,3.7,0,0,0,2.33.76A5.4,5.4,0,0,0,169.3,19a12.47,12.47,0,0,0,1.66-.66c.55-.27,1.08-.55,1.58-.85s.94-.58,1.31-.83l-.85,8a8.6,8.6,0,0,1-1.48.9,10.93,10.93,0,0,1-1.66.59,11.51,11.51,0,0,1-1.75.34,14.17,14.17,0,0,1-1.72.1,10.38,10.38,0,0,1-3.18-.47,9.33,9.33,0,0,1-2.61-1.33,9.72,9.72,0,0,1-2-2,11.8,11.8,0,0,1-1.46-2.53,15.63,15.63,0,0,1-.88-2.9,17,17,0,0,1-.29-3.1,18.84,18.84,0,0,1,.29-3.27,16.35,16.35,0,0,1,.91-3.14A13.21,13.21,0,0,1,158.67,5a11.24,11.24,0,0,1,2.15-2.26,9.8,9.8,0,0,1,2.79-1.51A10.57,10.57,0,0,1,167,.67a8.94,8.94,0,0,1,2.86.43,8,8,0,0,1,2.3,1.19A8.15,8.15,0,0,1,174,4.11a10.67,10.67,0,0,1,1.23,2.31A13.59,13.59,0,0,1,176,9.08,16.88,16.88,0,0,1,176.15,11.92Zm-7-.92a4.79,4.79,0,0,0-.11-1,3.11,3.11,0,0,0-.34-.94,2.16,2.16,0,0,0-.62-.69,1.7,1.7,0,0,0-1-.27,2.1,2.1,0,0,0-1.24.37,3.78,3.78,0,0,0-.92.95,5.79,5.79,0,0,0-.63,1.24,8.71,8.71,0,0,0-.37,1.23l5.2-.49Z" fill="#ee233f"/><path d="M185.91,0l-1.45,18.49H178L177.29,0Zm-1.16,23.91a3.54,3.54,0,0,1-.3,1.44,3.76,3.76,0,0,1-2,2,3.69,3.69,0,0,1-1.43.29,3.74,3.74,0,0,1-3.44-5.18,3.94,3.94,0,0,1,.79-1.18,3.75,3.75,0,0,1,1.17-.8,3.58,3.58,0,0,1,2.87,0,3.83,3.83,0,0,1,2,2A3.53,3.53,0,0,1,184.75,23.91Z" fill="#ee233f"/></g></g></g></svg>