<svg xmlns="http://www.w3.org/2000/svg" width="188.02" height="29.18" viewBox="0 0 188.02 29.18"><g id="Layer_2" data-name="Layer 2"><g id="Layer_1-2" data-name="Layer 1"><g id="Miniature_2" data-name="Miniature 2" style="isolation:isolate"><g style="isolation:isolate"><path d="M29.32,2.08,27.7,27.88l-8,.35.07-13.6-3.62,11H13l-2.77-9.81,0,11.39-8.12.25.35-24.3,9-.35,3.58,11.64L19.86,2.08Z" fill="#a3132b"/><path d="M39.78,3,38.55,26.9l-7.42.39-.7-23.84Z" fill="#a3132b"/><path d="M63,18.81c0,1.33,0,2.64-.05,3.93s-.07,2.6-.13,3.91l-10.12-.17q.53-3.12.91-6.22A50.1,50.1,0,0,0,54,14c0-.16,0-.4,0-.74s0-.73-.07-1.15-.09-.87-.15-1.32a8.19,8.19,0,0,0-.26-1.24,3.29,3.29,0,0,0-.41-.92.68.68,0,0,0-.57-.36,1.48,1.48,0,0,0-1,.35,2.76,2.76,0,0,0-.69.9,6,6,0,0,0-.43,1.24,13.51,13.51,0,0,0-.23,1.37c-.06.46-.09.89-.11,1.3s0,.73,0,1q-.07,3.1-.14,6.18c0,2-.08,4.11-.14,6.19l-9,.39q.35-6.21.68-12.34c.21-4.09.39-8.2.51-12.34l8.3-.42-.07,2.81a11.23,11.23,0,0,1,1.06-1.12,6.62,6.62,0,0,1,1.23-.91,6.55,6.55,0,0,1,1.38-.6A5.44,5.44,0,0,1,55.42,2a6.44,6.44,0,0,1,2.62.5A5.88,5.88,0,0,1,60,3.87a7.32,7.32,0,0,1,1.35,2,13.4,13.4,0,0,1,.88,2.45A22.81,22.81,0,0,1,62.72,11q.18,1.43.24,2.79c0,.91.06,1.8.06,2.65Z" fill="#a3132b"/><path d="M73.85,3,72.62,26.9l-7.42.39L64.49,3.45Z" fill="#a3132b"/><path d="M97.17,26.2l-8.72,1.12-1-4h-4l-.88,4-9-.88L80.54,3l9.78-.49ZM86.77,18l-1.34-6.12L84.13,18Z" fill="#a3132b"/><path d="M114,2.92l-.17,7.46-5.24.21L108,26.9l-7.42.39L99.86,11l-5.24.28L94.83,3Z" fill="#a3132b"/><path d="M136,3q-.8,6.18-1.35,12.31c-.38,4.08-.74,8.2-1.08,12.33l-7.2.53.31-2.71a3.69,3.69,0,0,1-.81.71,5.4,5.4,0,0,1-1,.48,5.59,5.59,0,0,1-1.09.26,4.91,4.91,0,0,1-1.07.06,5.84,5.84,0,0,1-2.25-.46,7.43,7.43,0,0,1-1.93-1.2,9.46,9.46,0,0,1-1.59-1.74A12.23,12.23,0,0,1,115,19.2a10.17,10.17,0,0,1-.26-2.22c0-1.05,0-2.14.07-3.27s.11-2.27.22-3.41.24-2.26.41-3.37.38-2.18.64-3.2c1.43.07,2.87.14,4.31.19s2.87.08,4.3.06c-.27,1-.53,2-.8,3.06s-.5,2.06-.71,3.1-.38,2.08-.51,3.12a25.53,25.53,0,0,0-.19,3.16c0,.25,0,.6,0,1.06a9,9,0,0,0,.19,1.35,3.62,3.62,0,0,0,.46,1.17,1,1,0,0,0,.87.5,1.59,1.59,0,0,0,1.19-.57,5.19,5.19,0,0,0,.93-1.54,14.36,14.36,0,0,0,.7-2.23c.19-.85.35-1.73.49-2.65s.24-1.85.32-2.78.15-1.82.19-2.65.07-1.57.09-2.22,0-1.17,0-1.53,0-.46,0-.69,0-.45-.06-.68l2.27,0,2.27,0h1.77Z" fill="#a3132b"/><path d="M157.61,10.76a11.82,11.82,0,0,1-.24,2.49,7.59,7.59,0,0,1-.75,2.05A7.38,7.38,0,0,1,155.3,17a11.65,11.65,0,0,1-2,1.51L157.54,26l-7.91,1.55L146.92,20l-2.18.07-.32,7.32h-7.56q.09-4,.17-8t.18-8c0-1.35,0-2.69.08-4s.07-2.66.14-4a21.69,21.69,0,0,1,2.42-.76,22.54,22.54,0,0,1,2.4-.46c.8-.11,1.62-.19,2.44-.23s1.68-.06,2.54-.06a13.58,13.58,0,0,1,3.88.55,10,10,0,0,1,3.31,1.66,8.39,8.39,0,0,1,2.32,2.76A8.16,8.16,0,0,1,157.61,10.76Zm-7.88.56a4.45,4.45,0,0,0-.2-1.35,3.15,3.15,0,0,0-.6-1.06,2.72,2.72,0,0,0-1-.71A3.5,3.5,0,0,0,146.57,8a5.12,5.12,0,0,0-.69,0,4.69,4.69,0,0,0-.65.14L145,14.66h.42a6.3,6.3,0,0,0,1.54-.19,4.69,4.69,0,0,0,1.41-.6,3.31,3.31,0,0,0,1-1A2.78,2.78,0,0,0,149.73,11.32Z" fill="#a3132b"/><path d="M178.26,13.5a22.48,22.48,0,0,1-.21,3.06q-3,.2-6,.63l-5.94.85a4.39,4.39,0,0,0,1.43,2,3.72,3.72,0,0,0,2.33.76,5.05,5.05,0,0,0,1.54-.27,11,11,0,0,0,1.66-.66,15.86,15.86,0,0,0,1.58-.85c.51-.3.94-.58,1.3-.82l-.84,8a7.65,7.65,0,0,1-1.48.89,9.77,9.77,0,0,1-1.67.6,12.71,12.71,0,0,1-1.74.33,14.45,14.45,0,0,1-1.72.11,10,10,0,0,1-3.18-.48,9.16,9.16,0,0,1-2.61-1.32,9.81,9.81,0,0,1-2-2,11.92,11.92,0,0,1-1.46-2.53,15,15,0,0,1-.88-2.9,16,16,0,0,1-.3-3.09,18.08,18.08,0,0,1,.3-3.27,16,16,0,0,1,.91-3.15,13.09,13.09,0,0,1,1.53-2.8,11,11,0,0,1,2.15-2.26,9.62,9.62,0,0,1,2.79-1.51,10.37,10.37,0,0,1,3.43-.55,9.18,9.18,0,0,1,2.86.43,8,8,0,0,1,2.3,1.2,8.22,8.22,0,0,1,1.76,1.82A10.2,10.2,0,0,1,177.3,8a14,14,0,0,1,.72,2.66A16.63,16.63,0,0,1,178.26,13.5Zm-7-.91a5.11,5.11,0,0,0-.11-1,3.09,3.09,0,0,0-.34-.94,2.32,2.32,0,0,0-.62-.7,1.66,1.66,0,0,0-1-.27,2.12,2.12,0,0,0-1.24.38A3.62,3.62,0,0,0,167,11a5.81,5.81,0,0,0-.64,1.24,9.13,9.13,0,0,0-.36,1.23l5.2-.49Z" fill="#a3132b"/><path d="M188,1.59l-1.45,18.49h-6.5L179.4,1.59Zm-1.16,23.9a3.44,3.44,0,0,1-.3,1.44,3.86,3.86,0,0,1-.8,1.17,3.72,3.72,0,0,1-1.17.79,3.45,3.45,0,0,1-1.43.29,3.5,3.5,0,0,1-1.44-.29,3.72,3.72,0,0,1-1.17-.79,3.83,3.83,0,0,1-.79-1.17,3.6,3.6,0,0,1-.29-1.44,3.74,3.74,0,0,1,.29-1.44,3.93,3.93,0,0,1,.79-1.19,4.12,4.12,0,0,1,1.17-.8,3.67,3.67,0,0,1,1.44-.29,3.62,3.62,0,0,1,1.43.29,4.12,4.12,0,0,1,1.17.8,4,4,0,0,1,.8,1.19A3.57,3.57,0,0,1,186.86,25.49Z" fill="#a3132b"/></g></g><g id="Miniature_2-2" data-name="Miniature 2" style="isolation:isolate"><g style="isolation:isolate"><path d="M27.21.49,25.59,26.3l-8,.35L17.65,13,14,24h-3.1L8.16,14.2l0,11.39L0,25.84.35,1.55l9-.35L13,12.83,17.75.49Z" fill="#fff"/><path d="M37.67,1.37,36.44,25.31,29,25.7l-.7-23.84Z" fill="#fff"/><path d="M60.91,17.23c0,1.32,0,2.63,0,3.93s-.07,2.59-.13,3.91l-10.12-.18q.53-3.11.91-6.21a50.26,50.26,0,0,0,.39-6.27c0-.15,0-.4,0-.74s0-.72-.07-1.15-.08-.87-.15-1.32A8.45,8.45,0,0,0,51.41,8,3.43,3.43,0,0,0,51,7a.68.68,0,0,0-.57-.36,1.53,1.53,0,0,0-1,.35,2.89,2.89,0,0,0-.68.91,5.48,5.48,0,0,0-.44,1.24,12.63,12.63,0,0,0-.23,1.37C48,11,48,11.43,48,11.84s0,.73,0,1Q47.85,16,47.79,19c0,2-.08,4.11-.14,6.2l-9,.38q.35-6.19.68-12.34c.21-4.09.39-8.2.51-12.34l8.3-.42L48.11,3.3a12.43,12.43,0,0,1,1.06-1.12,7.66,7.66,0,0,1,1.23-.91A6,6,0,0,1,51.78.68,5.15,5.15,0,0,1,53.31.46,6.45,6.45,0,0,1,55.93,1a5.91,5.91,0,0,1,1.94,1.34,7.27,7.27,0,0,1,1.35,2,14,14,0,0,1,.88,2.45,22.6,22.6,0,0,1,.51,2.72c.12.94.2,1.87.24,2.78s.06,1.8.06,2.66Z" fill="#fff"/><path d="M71.74,1.37,70.51,25.31l-7.42.39L62.38,1.86Z" fill="#fff"/><path d="M95.06,24.61l-8.72,1.12-1-4h-4l-.88,4-9-.87,7-23.42L88.21,1Zm-10.4-8.23-1.34-6.11L82,16.38Z" fill="#fff"/><path d="M111.88,1.34l-.17,7.45L106.47,9l-.63,16.31-7.42.39L97.75,9.39l-5.24.28.21-8.3Z" fill="#fff"/><path d="M133.84,1.37q-.79,6.2-1.35,12.31T131.41,26l-7.2.52.31-2.7a3.65,3.65,0,0,1-.81.7,4.6,4.6,0,0,1-1,.48,5.61,5.61,0,0,1-1.09.27,6.58,6.58,0,0,1-1.07.06,5.84,5.84,0,0,1-2.25-.47,7.67,7.67,0,0,1-1.93-1.19A9.07,9.07,0,0,1,114.79,22a11.8,11.8,0,0,1-1.19-2.1,12,12,0,0,1-.74-2.24,10.12,10.12,0,0,1-.25-2.21c0-1.06,0-2.15.06-3.28s.11-2.26.22-3.4.24-2.26.41-3.38.38-2.18.64-3.2l4.31.2c1.44.06,2.88.07,4.3.05-.26,1-.53,2-.8,3.07s-.5,2.05-.71,3.09-.38,2.08-.51,3.12a25.58,25.58,0,0,0-.19,3.17c0,.24,0,.59,0,1.05a7.56,7.56,0,0,0,.18,1.35,3.62,3.62,0,0,0,.46,1.17.94.94,0,0,0,.87.5,1.59,1.59,0,0,0,1.19-.57A5.19,5.19,0,0,0,124,16.8a14,14,0,0,0,.7-2.23c.19-.84.36-1.72.49-2.64s.24-1.85.33-2.79.14-1.82.18-2.64.07-1.57.09-2.23,0-1.16,0-1.53,0-.46,0-.68,0-.45-.06-.69l2.27,0c.75,0,1.51,0,2.27,0h1.77C132.65,1.43,133.24,1.41,133.84,1.37Z" fill="#fff"/><path d="M155.5,9.18a11.79,11.79,0,0,1-.24,2.48,7.47,7.47,0,0,1-.75,2.05,7.18,7.18,0,0,1-1.32,1.72A12.22,12.22,0,0,1,151.24,17l4.19,7.45L147.52,26l-2.71-7.49-2.18.07-.32,7.31h-7.56q.09-4,.17-8c.05-2.65.12-5.31.19-8,0-1.35,0-2.68.07-4s.07-2.66.14-4a24.71,24.71,0,0,1,2.42-.75,22.59,22.59,0,0,1,2.4-.47c.8-.11,1.62-.19,2.44-.23s1.68-.06,2.55-.06A13.57,13.57,0,0,1,149,.91a9.82,9.82,0,0,1,3.31,1.66,8,8,0,0,1,3.19,6.61Zm-7.88.56a4.51,4.51,0,0,0-.2-1.36,3.15,3.15,0,0,0-.6-1.06,2.7,2.7,0,0,0-1-.7,3.5,3.5,0,0,0-1.38-.26,5.09,5.09,0,0,0-.69,0,4.67,4.67,0,0,0-.65.13l-.28,6.54h.42a6.32,6.32,0,0,0,1.54-.2,4.43,4.43,0,0,0,1.41-.59,3.49,3.49,0,0,0,1-1A2.83,2.83,0,0,0,147.62,9.74Z" fill="#fff"/><path d="M176.15,11.92a22.48,22.48,0,0,1-.21,3.06c-2,.13-4,.33-6,.62l-5.94.85a4.34,4.34,0,0,0,1.43,2,3.66,3.66,0,0,0,2.33.76,5.34,5.34,0,0,0,1.54-.26,13.65,13.65,0,0,0,1.66-.66c.55-.27,1.08-.55,1.58-.85s.94-.58,1.31-.83l-.85,8a8.23,8.23,0,0,1-1.48.9,10.93,10.93,0,0,1-1.66.59,11.75,11.75,0,0,1-1.75.34,14.41,14.41,0,0,1-1.72.1,10.3,10.3,0,0,1-3.18-.47,9.45,9.45,0,0,1-2.61-1.33,10,10,0,0,1-2.05-2,12.17,12.17,0,0,1-1.46-2.53,15.25,15.25,0,0,1-.88-2.9,16.87,16.87,0,0,1-.29-3.1,19,19,0,0,1,.29-3.27,16.45,16.45,0,0,1,.91-3.14A12.93,12.93,0,0,1,158.67,5a11,11,0,0,1,2.15-2.26,9.87,9.87,0,0,1,2.79-1.51A10.41,10.41,0,0,1,167,.67a8.9,8.9,0,0,1,2.86.43,8,8,0,0,1,2.3,1.19A8.22,8.22,0,0,1,174,4.11a10.64,10.64,0,0,1,1.23,2.31,14.26,14.26,0,0,1,.72,2.66A16.75,16.75,0,0,1,176.15,11.92Zm-7-.92a5.19,5.19,0,0,0-.11-1,3.19,3.19,0,0,0-.34-.94,2.17,2.17,0,0,0-.62-.69,1.66,1.66,0,0,0-1-.27,2.11,2.11,0,0,0-1.24.37,3.78,3.78,0,0,0-.92.95,5.56,5.56,0,0,0-.63,1.24,8.69,8.69,0,0,0-.37,1.23l5.2-.49Z" fill="#fff"/><path d="M185.91,0l-1.45,18.49H178L177.29,0Zm-1.16,23.91a3.51,3.51,0,0,1-.3,1.44,3.77,3.77,0,0,1-2,2,3.62,3.62,0,0,1-1.43.29,3.67,3.67,0,0,1-1.44-.29,3.71,3.71,0,0,1-2-2,3.67,3.67,0,0,1-.29-1.44,3.75,3.75,0,0,1,.29-1.45,3.88,3.88,0,0,1,.79-1.18,3.93,3.93,0,0,1,1.17-.8,3.51,3.51,0,0,1,1.44-.3,3.46,3.46,0,0,1,1.43.3,3.81,3.81,0,0,1,2,2A3.59,3.59,0,0,1,184.75,23.91Z" fill="#fff"/></g></g></g></g></svg>